<?xml version="1.0" encoding="UTF-8"?>
<svg viewBox="0 0 246.46239 127.55141" xmlns="http://www.w3.org/2000/svg">
 <path d="m42.912 29.806c0.26521 0.47983-24.919 26.873-25.18 32.249-0.59445 12.243 29.471-26.885 28.473-28.089l-1.6466-3.7441-1.6465-0.416z" fill="#ececec" fill-rule="evenodd" stroke="#000" stroke-width=".15517"/>
 <path d="m50.042 109.96 99.776 0.46476c0.2702-5.9488 0.61954-8.1944 2.2501-11.768 2.569-5.22 6.0556-6.8408 8.6207-8.2354 5.8057-3.1564 13.727-1.6289 16.34-0.54048 3.2565 1.3563 7.7643 5.633 9.5132 10.416 1.4907 4.0765 1.5666 8.0102 1.5911 10.171l56.109-0.3525s5.9797-94.85-5.2762-104.98-200.85 0-200.85 0l-1.7588 22.022s7.0349-0.88088 7.0349 3.5235-16.884 24.665-16.884 24.665-23.567 10.57-24.974 18.939-0.35172 18.498-0.35172 18.498l12.755 1.7861s9.0849-7.4844 19.236-6.5116c10.182 0.97578 16.07 11.867 16.865 21.903z" fill="#ff0" fill-rule="evenodd" stroke="#000" stroke-width="1.2692"/>
 <path d="m0.49076 93.252v19.02h10.892s-1.1721-11.672 4.5137-18.139l1.6309-2.453-17.037 1.5724z" fill-rule="evenodd" stroke="#000" stroke-width=".16629"/>
 <path transform="matrix(.095038 0 0 -.1124 -2.0943 204.3)" d="m480.88 852.67a142.38 128.24 0 1 1 -284.76 0 142.38 128.24 0 1 1 284.76 0z" fill="#333" stroke="#000" stroke-width="79.476"/>
 <path transform="matrix(.096744 0 0 -.11351 136.37 205.32)" d="m480.88 852.67a142.38 128.24 0 1 1 -284.76 0 142.38 128.24 0 1 1 284.76 0z" fill="#333" stroke="#000" stroke-width="79.476"/>
 <path d="m37.166 25.252c207.34-1.743 206.98-2.3531 206.98-2.3531" fill="none" stroke="#000" stroke-width="1.4682"/>
 <path d="m81.032 34.206h24.622v29.95h-24.622z" fill="#ececec" stroke="#000" stroke-width="1.2397"/>
 <path d="m113.74 33.875h24.622v29.95h-24.622z" fill="#ececec" stroke="#000" stroke-width="1.2397"/>
 <path d="m146.46 33.545h24.622v29.95h-24.622z" fill="#ececec" stroke="#000" stroke-width="1.2397"/>
 <path d="m179.17 33.215h24.622v29.95h-24.622z" fill="#ececec" stroke="#000" stroke-width="1.2397"/>
 <path d="m211.18 32.774h24.622v29.95h-24.622z" fill="#ececec" stroke="#000" stroke-width="1.2397"/>
 <path d="m1.8894 92.344z" fill="none" stroke="#000" stroke-width=".14758"/>
 <path d="m0.98107 82.233c244.6-2.6387 244.17-3.5623 244.17-3.5623" fill="none" stroke="#000" stroke-width="1.9621"/>
 <path d="m96.936 73.159v-9.2333l-5.1478-6.4459h-7.3044l-5.287 6.6201v8.7978l5.1826 6.4895h7.4088l5.1478-6.2282z" fill="#fff" fill-rule="evenodd" stroke="#000" stroke-width=".06461"/>
 <path d="m96.529 72.852v-8.783l-4.8968-6.1315h-6.9482l-5.0291 6.2973v8.3687l4.9298 6.173h7.0474l4.8968-5.9244z" fill="#f00" fill-rule="evenodd" stroke="#000" stroke-width=".06146"/>
 <path d="m80.44302,69.75008 .82568-.13868c.09906.91589.40668,1.37328.92286,1.37218 .25576-.00055.45627-.09388.60153-.28003s.21693-.42265.2151-.69975c-.00108-.163-.02757-.30151-.07948-.4155s-.13041-.20674-.23552-.27824-.35939-.19811-.76277-.37003c-.36141-.15245-.62641-.31815-.795-.4971s-.30384-.41339-.40574-.70333-.1505-.60769-.15272-.94349c-.00259-.3912.05786-.74343.18135-1.05668 .12581-.31323.2998-.54997.52195-.71019s.49715-.24068.825-.24138c.49292-.00105.87897.18558 1.15814.5599s.4292.9103.45008,1.60793l-.84708.06537c-.03975-.3846-.12174-.65339-.24599-.80636s-.3003-.2292-.52816-.22871-.40297.06769-.52531.20162-.18287.30033-.18155.49919 .05818.36013.17067.49356 .37038.27959.77369.43846c.42664.17189.73476.3538.92437.54574s.33885.4345.44084.73748 .15436.66474.15722,1.09508c.00411.62267-.12961,1.14622-.40117,1.57061s-.6945.63721-1.27578.63845c-1.0277.00219-1.6051-.81649-1.7322-2.45609m5.07954,2.3218-.03938-5.95622-1.2451.00266-.00802-1.21276 3.33074-.00711 .00802,1.21276-1.24162.00265 .03938,5.95622-.84402.0018m2.3517-3.54555c-.00565-.85414.07923-1.55688.25462-2.10823s.41097-.9675.69982-1.23872 .64021-.40725 1.05408-.40813c.59988-.00128 1.09028.31879 1.47119.96022s.57878,1.55549.58663,2.74217c.00792,1.19972-.18583,2.13744-.58129,2.81312-.34716.59735-.82184.89667-1.42404.89795-.60685.00129-1.08779-.29271-1.44277-.88205-.40439-.67398-.61047-1.59943-.61825-2.77633m.8716-.05075c.00545.8248.12116,1.44399.34711,1.85754s.50397.6151.83414.61439 .60667-.20505.82254-.61303 .32096-1.04066.31537-1.88829c-.0055-.83132-.11652-1.44563-.33306-1.84291-.21421-.39728-.49338-.59555-.8375-.59482s-.62297.20182-.83655.60328-.3176,1.02274-.31204,1.86384m3.88111,3.58114-.0474-7.16898 1.3602-.0029c.50687-.00107.83843.03245.99466.10058 .24952.11031.45569.34623.61852.70777 .16515.36153.24961.82755.25338,1.39806 .00343.51837-.06345.95373-.20063,1.30612s-.30996.59564-.51827.73953-.56826.2115-1.07979.21259l-.55454.00118 .01788,2.70426-.84402.0018m.80464-5.95802 .01345,2.03431 .46735-.001c.31389-.00067.52643-.0321.63763-.09428s.20579-.17323.27682-.33313 .10572-.36209.10417-.59683c-.00157-.23798-.0401-.43841-.11558-.60125s-.16805-.27186-.2777-.32705-.34118-.0824-.6946-.08166l-.41155.00088" fill="#fff"/>
 <path d="m77.122 64.985h1.4883v7.1489h-1.4883z" fill="#1a1a1a" stroke="#000" stroke-width="1.1487"/>
 <path d="m242.48 65.477h2.814v10.571h-2.814z" fill="#f00"/>
 <path transform="matrix(.13189 0 0 .16515 -11.389 -27.106)" d="m773.42 535.28a17.335 17.335 0 1 1 -34.67 0 17.335 17.335 0 1 1 34.67 0z" fill="#800000"/>
 <path transform="matrix(.13189 0 0 .16515 -11.389 -12.352)" d="m773.42 535.28a17.335 17.335 0 1 1 -34.67 0 17.335 17.335 0 1 1 34.67 0z" fill="#800000"/>
 <path d="m74.642 34.719s1.3104 29.823-0.3815 29.823c-4.8593 0-42.027 0.42239-42.027 0.42239s-3.9758-1.8517-0.44176-6.1724c3.534-5.5552 16.345-23.455 16.345-23.455l26.505-0.61724z" fill="#e6e6e6" fill-rule="evenodd" stroke="#000" stroke-width="1.3253"/>
 <path d="m113.2454,69.48845v1.42697c-.29572-.16557-.58423-.29051-.86552-.37481s-.54697-.12644-.79701-.12644c-.33179,1e-005-.57702.0572-.7357.1716s-.23802.29202-.23802.53286c0,.18063.05289.32213.15868.42448s.30293.18515.58423.2574l.59145.14902c.59865.15053 1.0242.37933 1.27665.68639s.37866.74359.37867,1.30956c-1e-005,.74359-.17672,1.29752-.53014,1.66179s-.88837.54189-1.61204.54189c-.34141,0-.68401-.04064-1.02782-.12193s-.68761-.2017-1.03141-.36126v-1.46761c.3438.2288.67559.4019.99535.51931 .32217.1144.63231.1716.93044.1716s.53494-.06322.69603-.18966 .24162-.30707.24163-.54189c-1e-005-.21073-.0553-.3733-.1659-.4877s-.32577-.21675-.65275-.30707l-.53734-.14902c-.53856-.1445-.93285-.3748-1.18289-.69091s-.37146-.74208-.37146-1.27795c0-.67133.17311-1.18763.51932-1.54889s.84389-.54188 1.49303-.54189c.29572,1e-005 .59986.02861.91241.0858 .31255.0542.63592.13698.97011.24836m5.86034,6.15945c-.25485.16558-.52052.29051-.797.3748s-.56501.12644-.86553.12644c-.89679,0-1.60724-.31309-2.13136-.93927s-.78619-1.48115-.78619-2.5559c0-1.07775.26206-1.92971.78619-2.5559s1.23457-.94378 2.13136-.94379c.30052,1e-005 .58903.04215.86553.12644s.54215.20923.797.37481v1.39536c-.25726-.21976-.5109-.38082-.76094-.48318s-.51331-.15353-.78979-.15353c-.49528,1e-005-.88477.1987-1.16847.59607s-.42555.9453-.42555,1.64372 .14185,1.24183.42555,1.63921 .67319.59608 1.16847.59608c.27648,0 .53974-.05118.78979-.15354s.50368-.26341.76094-.48318v1.39536m1.13961-6.37169h1.38845v2.56945h2.04842v-2.56945h1.38844v6.74197h-1.38844v-2.85845h-2.04842v2.85845h-1.38845v-6.74197m8.63363,1.13796c-.42315,1e-005-.75133.19569-.98453.58704s-.34983.94229-.34983,1.65275 .11662,1.25688.34983,1.64824 .56138.58704.98453.58704c.42555,0 .75493-.19568.98814-.58704s.34981-.94077.34983-1.64824-.11662-1.26139-.34983-1.65275-.56259-.58704-.98814-.58704m0-1.25989c.86552,1e-005 1.54352.31009 2.03399.93024s.73569,1.47665.73569,2.56945-.24523,1.94477-.73569,2.56493-1.16847.93024-2.03399.93024c-.86313,0-1.54112-.31008-2.03398-.93024s-.73571-1.47513-.73571-2.56493 .24524-1.94928.73571-2.56945 1.17085-.93023 2.03398-.93024m6.27508,1.25989c-.42316,1e-005-.75134.19569-.98455.58704s-.34981.94229-.34981,1.65275 .1166,1.25688.34981,1.64824 .56139.58704.98455.58704c.42554,0 .75492-.19568.98814-.58704s.34981-.94077.34981-1.64824-.11661-1.26139-.34981-1.65275-.5626-.58704-.98814-.58704m0-1.25989c.86551,1e-005 1.54352.31009 2.03397.93024s.7357,1.47665.73571,2.56945-.24525,1.94477-.73571,2.56493-1.16846.93024-2.03397.93024c-.86313,0-1.54112-.31008-2.034-.93024s-.73569-1.47513-.73569-2.56493 .24522-1.94928.73569-2.56945 1.17087-.93023 2.034-.93024m3.81552.12192h1.38845v5.4279h2.43791v1.31407h-3.82636v-6.74197m9.44146,2.61009c.21878,1e-005 .38467-.06021.49767-.18063s.16951-.29803.16951-.53285-.05651-.40792-.16951-.52834-.27889-.18514-.49767-.18514h-.76815v1.42697h.76815m.04689,2.94877c.27888,0 .48805-.07376.6275-.22127s.21277-.37029.21278-.66833c-1e-005-.29201-.06973-.51027-.20918-.65478-.13945-.14751-.34982-.22127-.6311-.22127h-.81504v1.76565h.81504m1.29106-2.42494c.29813.10838.52894.30858.69243.60059s.24523.65027.24523,1.07474c0,.65027-.17552,1.13495-.52653,1.45406s-.88477.47867-1.60122.47867h-2.30447v-6.74197h2.08448c.74772,1e-005 1.28867.1415 1.62286.42448 .33658.28299.50489.73607.50489,1.35923 0,.32815-.06132.60812-.18392.83992s-.30054.39889-.53375.51028m2.13137-3.13391h1.38844v4.04157c0,.55694.07213.95583.21638,1.19667 .14666.23783.38468.35674.71407.35674s.5698-.11891.71406-.35674c.14665-.24084.21998-.63972.21998-1.19667v-4.04157h1.38846v4.04157c-2e-005,.95432-.19115,1.6648-.57342,2.13142s-.9653.69994-1.74908.69994-1.3632-.23331-1.74549-.69994-.5734-1.1771-.5734-2.13142v-4.04157m9.74799.21224v1.42697c-.29573-.16557-.58423-.29051-.86553-.37481s-.54696-.12644-.797-.12644c-.33179,1e-005-.57703.0572-.7357.1716s-.23802.29202-.23801.53286c-1e-005,.18063.05289.32213.15868.42448s.30292.18515.58423.2574l.59143.14902c.59866.15053 1.0242.37933 1.27665.68639s.37867.74359.37867,1.30956c0,.74359-.17672,1.29752-.53013,1.66179s-.88837.54189-1.61205.54189c-.34139,0-.684-.04064-1.0278-.12193s-.68762-.2017-1.03143-.36126v-1.46761c.34381.2288.67559.4019.99536.51931 .32216.1144.63232.1716.93044.1716s.53494-.06322.69604-.18966 .24162-.30707.24162-.54189c0-.21073-.0553-.3733-.16589-.4877s-.32578-.21675-.65275-.30707l-.53736-.14902c-.53855-.1445-.93284-.3748-1.18288-.69091s-.37146-.74208-.37146-1.27795c0-.67133.17311-1.18763.51932-1.54889s.84388-.54188 1.49303-.54189c.29573,1e-005 .59985.02861.91242.0858 .31254.0542.6359.13698.9701.24836"/>
 <path transform="matrix(2.4932 .18373 -.081228 1.1023 214.83 -58.321)" d="m-68.674 77.648a0.33337 6.334 0 1 1 -0.66674 0 0.33337 6.334 0 1 1 0.66674 0z" fill="#800000"/>
</svg>
